<svg xmlns="http://www.w3.org/2000/svg" xmlns:xlink="http://www.w3.org/1999/xlink" viewBox="0 0 398.66 389.18"><defs><style>.cls-1{fill:url(#radial-gradient);}.cls-2{fill:url(#radial-gradient-2);}.cls-3{fill:url(#radial-gradient-3);}.cls-4{fill:url(#radial-gradient-4);}.cls-5{fill:url(#radial-gradient-5);}.cls-6{fill:#e4b0ff;}.cls-7{fill:#abf5ff;}.cls-8{fill:#ff88b9;}.cls-9{fill:#9fffcf;}.cls-10{fill:#fff3ab;}.cls-11{fill:#fde32e;}.cls-12{fill:#fcb910;}.cls-13{fill:#fffbe9;}.cls-14{fill:#ffc31a;}.cls-15{fill:#ffed80;}.cls-16{fill:#fff6b8;}.cls-17{fill:#ffb91d;}.cls-18{fill:#f7cc19;}.cls-19{fill:#f99f10;}.cls-20{fill:#fff98a;}.cls-21,.cls-33,.cls-44,.cls-56,.cls-68{opacity:0.5;}.cls-21{fill:url(#linear-gradient);}.cls-22{fill:#fff;}.cls-23,.cls-34,.cls-45,.cls-57,.cls-69{fill:none;stroke-linecap:round;stroke-linejoin:round;}.cls-23{stroke:#823104;stroke-width:3.44px;}.cls-24{fill:url(#radial-gradient-6);}.cls-25{fill:#33ef95;}.cls-26{fill:#15b27b;}.cls-27{fill:#cfffe6;}.cls-28{fill:#4dffa6;}.cls-29{fill:#a4ffcf;}.cls-30{fill:#1dcc89;}.cls-31{fill:#14db8f;}.cls-32{fill:#7dffbe;}.cls-33{fill:url(#linear-gradient-2);}.cls-34{stroke:#0c6650;stroke-width:3.28px;}.cls-35{fill:url(#radial-gradient-7);}.cls-36{fill:#ff3658;}.cls-37{fill:#c90d4c;}.cls-38{fill:#ffccdc;}.cls-39{fill:#ff5076;}.cls-40{fill:#ffb6cd;}.cls-41{fill:#b70b49;}.cls-42{fill:#ed214d;}.cls-43{fill:#ff80a1;}.cls-44{fill:url(#linear-gradient-3);}.cls-45{stroke:#770e31;stroke-width:4.01px;}.cls-46{fill:url(#radial-gradient-8);}.cls-47{fill:#31dbff;}.cls-48{fill:#25aef2;}.cls-49{fill:#d9feff;}.cls-50{fill:#4deaff;}.cls-51{fill:#c0ffff;}.cls-52{fill:#1dbdfc;}.cls-53{fill:#1fcaff;}.cls-54{fill:#76efff;}.cls-55{fill:#85f6ff;}.cls-56{fill:url(#linear-gradient-4);}.cls-57{stroke:#0d58a3;stroke-width:4.57px;}.cls-58{fill:url(#radial-gradient-9);}.cls-59{fill:#cf5fff;}.cls-60{fill:#a223e5;}.cls-61{fill:#f8e3ff;}.cls-62{fill:#d585ff;}.cls-63{fill:#f2d2ff;}.cls-64{fill:#ad41f2;}.cls-65{fill:#c24dff;}.cls-66{fill:#e080ff;}.cls-67{fill:#e9aeff;}.cls-68{fill:url(#linear-gradient-5);}.cls-69{stroke:#6e1ca3;stroke-width:5.79px;}.cls-70{fill:url(#radial-gradient-10);}</style><radialGradient id="radial-gradient" cx="191.94" cy="134.31" r="128.68" gradientUnits="userSpaceOnUse"><stop offset="0" stop-color="#d46fff"/><stop offset="0.07" stop-color="#d36dff" stop-opacity="0.89"/><stop offset="0.24" stop-color="#d269ff" stop-opacity="0.62"/><stop offset="0.41" stop-color="#d165ff" stop-opacity="0.4"/><stop offset="0.56" stop-color="#d063ff" stop-opacity="0.23"/><stop offset="0.7" stop-color="#d061ff" stop-opacity="0.1"/><stop offset="0.81" stop-color="#cf5fff" stop-opacity="0.03"/><stop offset="0.89" stop-color="#cf5fff" stop-opacity="0"/></radialGradient><radialGradient id="radial-gradient-2" cx="134.94" cy="268.89" r="113.67" gradientUnits="userSpaceOnUse"><stop offset="0" stop-color="#31dbff"/><stop offset="0.11" stop-color="#31dbff" stop-opacity="0.79"/><stop offset="0.26" stop-color="#31dbff" stop-opacity="0.55"/><stop offset="0.4" stop-color="#31dbff" stop-opacity="0.36"/><stop offset="0.53" stop-color="#31dbff" stop-opacity="0.2"/><stop offset="0.65" stop-color="#31dbff" stop-opacity="0.09"/><stop offset="0.75" stop-color="#31dbff" stop-opacity="0.02"/><stop offset="0.83" stop-color="#31dbff" stop-opacity="0"/></radialGradient><radialGradient id="radial-gradient-3" cx="252.91" cy="276.19" r="98.96" gradientUnits="userSpaceOnUse"><stop offset="0" stop-color="#f1284b"/><stop offset="0.03" stop-color="#f1284a" stop-opacity="0.94"/><stop offset="0.2" stop-color="#f12647" stop-opacity="0.66"/><stop offset="0.37" stop-color="#f22444" stop-opacity="0.43"/><stop offset="0.52" stop-color="#f22341" stop-opacity="0.24"/><stop offset="0.65" stop-color="#f2223f" stop-opacity="0.11"/><stop offset="0.76" stop-color="#f2213e" stop-opacity="0.03"/><stop offset="0.84" stop-color="#f2213e" stop-opacity="0"/></radialGradient><radialGradient id="radial-gradient-4" cx="315.78" cy="196.29" r="91.28" gradientUnits="userSpaceOnUse"><stop offset="0" stop-color="#33ef95"/><stop offset="0.03" stop-color="#33ef95" stop-opacity="0.95"/><stop offset="0.2" stop-color="#33ef95" stop-opacity="0.67"/><stop offset="0.37" stop-color="#33ef95" stop-opacity="0.43"/><stop offset="0.52" stop-color="#33ef95" stop-opacity="0.24"/><stop offset="0.65" stop-color="#33ef95" stop-opacity="0.11"/><stop offset="0.76" stop-color="#33ef95" stop-opacity="0.03"/><stop offset="0.84" stop-color="#33ef95" stop-opacity="0"/></radialGradient><radialGradient id="radial-gradient-5" cx="72.61" cy="181.48" r="79.58" gradientUnits="userSpaceOnUse"><stop offset="0" stop-color="#fde32e"/><stop offset="0.06" stop-color="#fde32e" stop-opacity="0.9"/><stop offset="0.22" stop-color="#fde32e" stop-opacity="0.63"/><stop offset="0.38" stop-color="#fde32e" stop-opacity="0.41"/><stop offset="0.53" stop-color="#fde32e" stop-opacity="0.23"/><stop offset="0.66" stop-color="#fde32e" stop-opacity="0.1"/><stop offset="0.77" stop-color="#fde32e" stop-opacity="0.03"/><stop offset="0.84" stop-color="#fde32e" stop-opacity="0"/></radialGradient><linearGradient id="linear-gradient" x1="73.04" y1="224.16" x2="73.04" y2="137.46" gradientUnits="userSpaceOnUse"><stop offset="0.16" stop-color="#ff5a12"/><stop offset="0.31" stop-color="#ff7b19" stop-opacity="0.76"/><stop offset="0.66" stop-color="#fdcf2a" stop-opacity="0.15"/><stop offset="0.74" stop-color="#fde32e" stop-opacity="0"/></linearGradient><radialGradient id="radial-gradient-6" cx="90.23" cy="155.08" r="17.71" gradientUnits="userSpaceOnUse"><stop offset="0" stop-color="#fff"/><stop offset="0.03" stop-color="#fff" stop-opacity="0.95"/><stop offset="0.18" stop-color="#fff" stop-opacity="0.71"/><stop offset="0.32" stop-color="#fff" stop-opacity="0.49"/><stop offset="0.47" stop-color="#fff" stop-opacity="0.31"/><stop offset="0.6" stop-color="#fff" stop-opacity="0.18"/><stop offset="0.73" stop-color="#fff" stop-opacity="0.08"/><stop offset="0.84" stop-color="#fff" stop-opacity="0.02"/><stop offset="0.94" stop-color="#fff" stop-opacity="0"/></radialGradient><linearGradient id="linear-gradient-2" x1="315.54" y1="237.62" x2="315.54" y2="154.99" gradientUnits="userSpaceOnUse"><stop offset="0.16" stop-color="#10c6b9"/><stop offset="0.35" stop-color="#25d8c8" stop-opacity="0.69"/><stop offset="0.74" stop-color="#52ffea" stop-opacity="0"/></linearGradient><radialGradient id="radial-gradient-7" cx="331.93" cy="171.78" r="16.88" xlink:href="#radial-gradient-6"/><linearGradient id="linear-gradient-3" x1="253.14" y1="326.55" x2="253.14" y2="225.53" gradientUnits="userSpaceOnUse"><stop offset="0.16" stop-color="#c60034"/><stop offset="0.35" stop-color="#d83b69" stop-opacity="0.69"/><stop offset="0.74" stop-color="#ffbbdc" stop-opacity="0"/></linearGradient><radialGradient id="radial-gradient-8" cx="273.16" cy="246.06" r="20.64" xlink:href="#radial-gradient-6"/><linearGradient id="linear-gradient-4" x1="134.58" y1="326.05" x2="134.58" y2="210.81" gradientUnits="userSpaceOnUse"><stop offset="0.19" stop-color="#0059c4"/><stop offset="0.24" stop-color="#0b62c7" stop-opacity="0.94"/><stop offset="0.35" stop-color="#287ad1" stop-opacity="0.79"/><stop offset="0.49" stop-color="#57a2df" stop-opacity="0.54"/><stop offset="0.66" stop-color="#98d8f3" stop-opacity="0.2"/><stop offset="0.74" stop-color="#bdf7ff" stop-opacity="0"/></linearGradient><radialGradient id="radial-gradient-9" cx="157.43" cy="234.22" r="23.54" xlink:href="#radial-gradient-6"/><linearGradient id="linear-gradient-5" x1="191.86" y1="206.42" x2="191.86" y2="60.49" gradientUnits="userSpaceOnUse"><stop offset="0.19" stop-color="#b70090"/><stop offset="0.25" stop-color="#bb0c96" stop-opacity="0.94"/><stop offset="0.36" stop-color="#c72ca8" stop-opacity="0.77"/><stop offset="0.51" stop-color="#db5fc4" stop-opacity="0.51"/><stop offset="0.68" stop-color="#f5a5ea" stop-opacity="0.14"/><stop offset="0.74" stop-color="#ffc0f9" stop-opacity="0"/></linearGradient><radialGradient id="radial-gradient-10" cx="220.79" cy="90.14" r="29.81" xlink:href="#radial-gradient-6"/></defs><g id="Layer_2" data-name="Layer 2"><g id="Layer_1-2" data-name="Layer 1"><g id="Phone"><polygon class="cls-1" points="308.78 67.62 308.78 202.87 306.89 203.95 290.17 213.6 274.29 222.77 241.65 241.63 191.66 270.49 74.54 202.87 74.54 67.62 87.77 59.99 103.62 50.82 120.33 41.17 191.66 0 308.78 67.62"/><polygon class="cls-2" points="238.15 209.98 238.15 329.44 236.48 330.4 221.71 338.93 207.68 347.03 178.84 363.69 134.69 389.18 31.23 329.44 31.23 209.98 42.91 203.24 56.91 195.14 71.68 186.61 134.69 150.24 238.15 209.98"/><polygon class="cls-3" points="342.77 224.9 342.77 328.91 341.31 329.74 328.46 337.16 316.25 344.22 291.14 358.71 252.7 380.91 162.63 328.91 162.63 224.9 172.8 219.03 184.99 211.98 197.85 204.56 252.7 172.9 342.77 224.9"/><polygon class="cls-4" points="398.66 148.99 398.66 244.92 397.32 245.69 385.46 252.54 374.2 259.04 351.04 272.42 315.58 292.89 232.5 244.92 232.5 148.99 241.89 143.58 253.13 137.07 264.99 130.22 315.58 101.02 398.66 148.99"/><polygon class="cls-5" points="144.87 140.24 144.87 223.88 143.7 224.55 133.36 230.53 123.54 236.2 103.35 247.85 72.44 265.7 0 223.88 0 140.24 8.18 135.52 17.98 129.85 28.32 123.88 72.44 98.42 144.87 140.24"/><path class="cls-6" d="M191.66,214.11a6,6,0,0,1-3-.81l-63.07-36.41a6.07,6.07,0,0,1-3-5.23V98.83a6,6,0,0,1,3-5.23l7.12-4.11,8.53-4.93,9-5.2,38.41-22.17a6,6,0,0,1,6,0L257.75,93.6a6,6,0,0,1,3,5.23v72.83a6,6,0,0,1-3,5.24l-1,.58-17.52,10.13-44.5,25.69A6,6,0,0,1,191.66,214.11Z"/><path class="cls-7" d="M134.69,332.63a5.31,5.31,0,0,1-2.66-.72L82.16,303.12a5.35,5.35,0,0,1-2.66-4.62V240.92a5.35,5.35,0,0,1,2.66-4.62l5.63-3.25,6.75-3.9,7.12-4.11L132,207.51a5.29,5.29,0,0,1,5.33,0l49.87,28.79a5.35,5.35,0,0,1,2.66,4.62V298.5a5.33,5.33,0,0,1-2.68,4.63l-.81.46-27.76,16-21.28,12.29A5.32,5.32,0,0,1,134.69,332.63Z"/><path class="cls-8" d="M252.7,331.94a5.28,5.28,0,0,1-2.66-.72l-43-24.85a5.36,5.36,0,0,1-2.67-4.62v-49.7a5.36,5.36,0,0,1,2.67-4.62l4.86-2.8,5.82-3.37,6.15-3.55L250,222.58a5.27,5.27,0,0,1,5.32,0l43.05,24.85a5.35,5.35,0,0,1,2.66,4.62v49.7a5.33,5.33,0,0,1-2.68,4.63l-.7.4-42.33,24.44A5.31,5.31,0,0,1,252.7,331.94Z"/><path class="cls-9" d="M315.58,242.17a5,5,0,0,1-2.5-.67l-34.82-20.1a5,5,0,0,1-2.51-4.34V176.85a5,5,0,0,1,2.51-4.34l3.93-2.27,4.71-2.72,5-2.87,21.21-12.24a5,5,0,0,1,5,0l34.82,20.1a5,5,0,0,1,2.5,4.34v40.21a5,5,0,0,1-2.52,4.35l-.56.32L318.09,241.5A5,5,0,0,1,315.58,242.17Z"/><path class="cls-10" d="M73,229.38a4.6,4.6,0,0,1-2.35-.63l-36.91-21.3a4.72,4.72,0,0,1-2.35-4.08V160.75a4.71,4.71,0,0,1,2.35-4.07l4.17-2.41,5-2.88,5.27-3,22.48-13a4.7,4.7,0,0,1,4.7,0l36.91,21.31a4.72,4.72,0,0,1,2.35,4.07v42.62a4.74,4.74,0,0,1-2.37,4.09l-.6.34L91.05,219.66,75.3,228.75A4.6,4.6,0,0,1,73,229.38Z"/><g id="Gems"><polygon class="cls-11" points="110.27 160.41 110.27 203.41 109.67 203.75 104.36 206.82 103.16 207.5 99.31 209.73 88.93 215.73 73.04 224.9 35.8 203.41 35.8 160.41 40.01 157.98 45.05 155.06 50.36 152 73.04 138.91 110.27 160.41"/><polygon class="cls-12" points="73.04 203.24 73.04 224.91 63.23 219.24 35.8 203.41 41.09 200.35 54.57 192.57 73.04 203.24"/><polygon class="cls-13" points="54.56 171.25 35.8 160.41 73.03 138.91 73.03 160.58 54.56 171.25"/><polygon class="cls-14" points="91.5 171.25 110.27 160.41 110.27 203.41 91.5 192.57 91.5 171.25"/><polygon class="cls-11" points="91.5 171.24 91.5 192.57 87.82 194.69 82.72 197.64 73.04 203.23 54.57 192.57 54.57 171.24 69.16 162.81 73.04 160.58 91.5 171.24"/><polygon class="cls-15" points="73.03 160.58 91.5 148.88 91.5 171.25 73.03 160.58"/><polygon class="cls-16" points="73.04 160.58 54.58 148.88 54.57 171.25 73.04 160.58"/><polygon class="cls-17" points="91.5 171.25 110.27 181.91 91.5 192.57 91.5 171.25"/><polygon class="cls-18" points="73.03 203.14 91.5 214.85 91.5 192.48 73.03 203.14"/><polygon class="cls-19" points="73.04 203.14 54.58 214.85 54.57 192.57 73.04 203.14"/><polygon class="cls-15" points="54.57 171.25 35.8 181.91 54.57 192.57 54.57 171.25"/><polygon class="cls-20" points="83.66 175.77 83.66 188.04 81.54 189.27 78.61 190.96 73.03 194.18 62.4 188.04 62.4 175.77 70.8 170.92 73.03 169.63 83.66 175.77"/><polygon class="cls-16" points="54.57 171.24 35.8 181.91 35.8 160.41 54.57 171.24"/><polygon class="cls-16" points="73.04 160.58 91.5 148.88 73.03 138.91 73.04 160.58"/><polygon class="cls-21" points="110.27 160.41 110.27 203.41 109.67 203.75 104.36 206.82 103.17 207.51 99.31 209.74 88.94 215.73 73.04 224.91 35.81 203.41 35.81 160.41 40.01 157.99 45.05 155.07 50.37 152 73.04 138.91 110.27 160.41"/><path class="cls-22" d="M72.17,160.58,73,138.91l.88,21.67a.87.87,0,1,1-1.74,0Z"/><path class="cls-22" d="M54.13,172,35.8,160.41,55,170.49a.87.87,0,1,1-.87,1.51Z"/><path class="cls-22" d="M54.57,192.57l-1.38-21.33a1.26,1.26,0,0,1,.62-1.15s18.58-10.54,18.62-10.57a1.12,1.12,0,0,1,1.22,0L91.5,171.24l-19.07-9.6h1.22l-18.4,10.79.69-1.19-1.37,21.33Z"/><path class="cls-22" d="M91.5,181.44l.58,11a.53.53,0,0,1-.26.49s-18.48,10.66-18.49,10.68a.55.55,0,0,1-.58,0l-9.1-5.88,9.68,4.87h-.58L91.21,192l-.29.5.58-11Z"/><path class="cls-22" d="M73.62,203.14,73,213.66l-.58-10.52a.58.58,0,1,1,1.16,0Z"/><path class="cls-22" d="M91.8,192l9.88,6.47L91.21,193a.58.58,0,1,1,.59-1Z"/><path class="cls-22" d="M110.71,161.17l-12.84,6.4,12-7.91a.87.87,0,1,1,.88,1.51Z"/><path class="cls-22" d="M35.36,202.65l11-5.36-10.17,6.87a.87.87,0,1,1-.87-1.51Z"/><polygon class="cls-23" points="110.27 203.41 110.27 160.41 73.03 138.91 35.8 160.41 35.8 203.41 73.03 224.91 110.27 203.41"/></g><g id="Sparkle"><circle class="cls-24" cx="90.23" cy="155.08" r="17.71"/><path class="cls-22" d="M101.18,155.08c-10.7,0-11,10.83-11,11.89,0-1.06-.25-11.89-11-11.89,10.7,0,11-10.83,11-11.89C90.22,144.25,90.48,155.08,101.18,155.08Z"/></g><g id="Gems-2" data-name="Gems"><polygon class="cls-25" points="351.03 176.87 351.03 217.84 350.46 218.17 345.4 221.09 344.26 221.75 340.58 223.87 330.7 229.59 315.55 238.33 280.06 217.84 280.06 176.87 284.07 174.55 288.87 171.77 293.94 168.85 315.55 156.37 351.03 176.87"/><polygon class="cls-26" points="315.55 217.68 315.55 238.34 306.2 232.94 280.06 217.84 285.11 214.93 297.94 207.51 315.55 217.68"/><polygon class="cls-27" points="297.94 187.19 280.06 176.87 315.55 156.38 315.55 177.03 297.94 187.19"/><polygon class="cls-26" points="333.15 187.19 351.03 176.87 351.03 217.84 333.15 207.52 333.15 187.19"/><polygon class="cls-25" points="333.14 187.19 333.14 207.51 329.64 209.54 324.78 212.35 315.55 217.68 297.94 207.51 297.94 187.19 311.85 179.16 315.55 177.03 333.14 187.19"/><polygon class="cls-28" points="315.55 177.03 333.14 165.88 333.15 187.19 315.55 177.03"/><polygon class="cls-29" points="315.55 177.03 297.95 165.88 297.95 187.19 315.55 177.03"/><polygon class="cls-30" points="333.14 187.19 351.03 197.35 333.15 207.52 333.14 187.19"/><polygon class="cls-31" points="315.55 217.59 333.14 228.75 333.15 207.43 315.55 217.59"/><polygon class="cls-30" points="315.55 217.59 297.95 228.75 297.94 207.51 315.55 217.59"/><polygon class="cls-28" points="297.95 187.19 280.06 197.35 297.94 207.51 297.95 187.19"/><polygon class="cls-32" points="325.68 191.5 325.68 203.2 323.66 204.37 320.86 205.99 315.55 209.05 305.41 203.2 305.41 191.5 313.42 186.88 315.55 185.65 325.68 191.5"/><polygon class="cls-29" points="297.94 187.19 280.06 197.35 280.06 176.87 297.94 187.19"/><polygon class="cls-29" points="315.55 177.03 333.14 165.88 315.55 156.38 315.55 177.03"/><polygon class="cls-33" points="351.03 176.87 351.03 217.84 350.46 218.17 345.39 221.09 344.26 221.75 340.58 223.87 330.69 229.59 315.54 238.33 280.06 217.84 280.06 176.87 284.07 174.55 288.87 171.77 293.93 168.85 315.54 156.37 351.03 176.87"/><path class="cls-22" d="M314.72,177l.82-20.65.84,20.65a.83.83,0,1,1-1.66,0Z"/><path class="cls-22" d="M297.53,187.91l-17.47-11,18.3,9.6a.83.83,0,1,1-.83,1.44Z"/><path class="cls-22" d="M297.94,207.51l-1.31-20.32a1.18,1.18,0,0,1,.6-1.1s17.7-10,17.74-10.07a1,1,0,0,1,1.16,0l17,11.17L315,178h1.17L298.6,188.32l.65-1.13-1.31,20.32Z"/><path class="cls-22" d="M333.15,196.91l.55,10.52a.49.49,0,0,1-.25.46s-17.61,10.17-17.62,10.18a.5.5,0,0,1-.55,0l-8.68-5.6,9.23,4.64h-.56L332.87,207l-.28.48.56-10.52Z"/><path class="cls-22" d="M316.1,217.59l-.55,10-.55-10a.55.55,0,1,1,1.1,0Z"/><path class="cls-22" d="M333.43,207l9.42,6.17-10-5.21a.56.56,0,1,1,.56-1Z"/><path class="cls-22" d="M351.45,177.58l-12.23,6.11,11.4-7.54a.83.83,0,1,1,.83,1.43Z"/><path class="cls-22" d="M279.64,217.12,290.16,212l-9.69,6.55a.83.83,0,1,1-.83-1.44Z"/><polygon class="cls-34" points="351.03 217.84 351.03 176.87 315.55 156.38 280.06 176.87 280.06 217.84 315.55 238.33 351.03 217.84"/></g><g id="Sparkle-2" data-name="Sparkle"><circle class="cls-35" cx="331.93" cy="171.78" r="16.88"/><path class="cls-22" d="M342.37,171.78c-10.2,0-10.44,10.33-10.44,11.34,0-1-.25-11.34-10.44-11.34,10.19,0,10.44-10.32,10.44-11.33C331.93,161.46,332.17,171.78,342.37,171.78Z"/></g><g id="Gems-3" data-name="Gems"><polygon class="cls-36" points="296.52 252.27 296.52 302.37 295.82 302.77 289.63 306.35 288.24 307.14 283.74 309.74 271.65 316.73 253.13 327.42 209.74 302.37 209.74 252.27 214.65 249.44 220.51 246.04 226.71 242.47 253.13 227.22 296.52 252.27"/><polygon class="cls-37" points="253.13 302.18 253.13 327.43 241.7 320.83 209.74 302.37 215.91 298.81 231.61 289.74 253.13 302.18"/><polygon class="cls-38" points="231.61 264.9 209.74 252.27 253.13 227.22 253.13 252.47 231.61 264.9"/><polygon class="cls-37" points="274.65 264.9 296.52 252.27 296.52 302.37 274.65 289.75 274.65 264.9"/><polygon class="cls-36" points="274.65 264.89 274.65 289.74 270.36 292.22 264.42 295.65 253.13 302.17 231.61 289.74 231.61 264.89 248.61 255.07 253.13 252.47 274.65 264.89"/><polygon class="cls-39" points="253.13 252.47 274.65 238.83 274.65 264.9 253.13 252.47"/><polygon class="cls-40" points="253.13 252.47 231.62 238.83 231.61 264.9 253.13 252.47"/><polygon class="cls-41" points="274.65 264.9 296.52 277.32 274.65 289.75 274.65 264.9"/><polygon class="cls-42" points="253.13 302.06 274.65 315.7 274.65 289.64 253.13 302.06"/><polygon class="cls-41" points="253.13 302.06 231.62 315.7 231.61 289.74 253.13 302.06"/><polygon class="cls-39" points="231.61 264.9 209.74 277.32 231.61 289.74 231.61 264.9"/><polygon class="cls-39" points="265.51 270.17 265.51 284.47 263.05 285.89 259.63 287.87 253.13 291.62 240.74 284.47 240.74 270.17 250.53 264.51 253.13 263.01 265.51 270.17"/><polygon class="cls-43" points="231.61 264.89 209.74 277.32 209.74 252.27 231.61 264.89"/><polygon class="cls-43" points="253.13 252.47 274.65 238.83 253.13 227.22 253.13 252.47"/><polygon class="cls-44" points="296.52 252.28 296.52 302.38 295.82 302.78 289.63 306.35 288.24 307.15 283.75 309.75 271.66 316.74 253.13 327.43 209.75 302.38 209.75 252.28 214.65 249.45 220.52 246.05 226.71 242.47 253.13 227.22 296.52 252.28"/><path class="cls-22" d="M252.12,252.47l1-25.25,1,25.25a1,1,0,1,1-2,0Z"/><path class="cls-22" d="M231.1,265.77l-21.36-13.5L232.12,264a1,1,0,1,1-1,1.76Z"/><path class="cls-22" d="M231.61,289.74,230,264.89a1.42,1.42,0,0,1,.8-1.38c.11-.05,21.59-12.28,21.69-12.32a1.31,1.31,0,0,1,1.35,0l20.8,13.66L252.42,253.7h1.42l-21.43,12.58.8-1.39-1.6,24.85Z"/><path class="cls-22" d="M274.65,276.78l.68,12.86a.65.65,0,0,1-.31.57l-21.55,12.44a.6.6,0,0,1-.67,0l-10.61-6.85,11.28,5.68h-.67l21.51-12.43-.34.59.68-12.86Z"/><path class="cls-22" d="M253.81,302.06l-.67,12.26-.68-12.26a.68.68,0,1,1,1.35,0Z"/><path class="cls-22" d="M275,289.06l11.52,7.53-12.2-6.37a.67.67,0,1,1,.68-1.16Z"/><path class="cls-22" d="M297,253.15l-15,7.46L296,251.39a1,1,0,1,1,1,1.76Z"/><path class="cls-22" d="M209.23,301.49l12.86-6.25-11.84,8a1,1,0,1,1-1-1.76Z"/><polygon class="cls-45" points="296.52 302.37 296.52 252.27 253.13 227.22 209.74 252.27 209.74 302.37 253.13 327.42 296.52 302.37"/></g><g id="Sparkle-3" data-name="Sparkle"><circle class="cls-46" cx="273.16" cy="246.06" r="20.64"/><path class="cls-22" d="M285.93,246.06c-12.47,0-12.77,12.62-12.77,13.86,0-1.24-.3-13.86-12.76-13.86,12.46,0,12.76-12.63,12.76-13.86C273.16,233.43,273.46,246.06,285.93,246.06Z"/></g><g id="Gems-4" data-name="Gems"><polygon class="cls-47" points="184.07 241.31 184.07 298.46 183.27 298.92 176.21 303 174.62 303.91 169.5 306.87 155.7 314.84 134.57 327.03 85.08 298.46 85.08 241.31 90.67 238.08 97.37 234.2 104.43 230.13 134.57 212.73 184.07 241.31"/><polygon class="cls-48" points="134.57 298.24 134.57 327.04 121.54 319.51 85.07 298.46 92.12 294.4 110.02 284.06 134.57 298.24"/><polygon class="cls-49" points="110.02 255.71 85.08 241.31 134.57 212.73 134.57 241.54 110.02 255.71"/><polygon class="cls-48" points="159.12 255.71 184.07 241.31 184.07 298.46 159.12 284.06 159.12 255.71"/><polygon class="cls-47" points="159.12 255.71 159.12 284.06 154.22 286.88 147.45 290.8 134.58 298.23 110.02 284.06 110.02 255.71 129.42 244.51 134.58 241.53 159.12 255.71"/><polygon class="cls-50" points="134.57 241.54 159.12 225.98 159.12 255.71 134.57 241.54"/><polygon class="cls-51" points="134.58 241.54 110.03 225.98 110.03 255.71 134.58 241.54"/><polygon class="cls-52" points="159.12 255.71 184.07 269.89 159.12 284.06 159.12 255.71"/><polygon class="cls-53" points="134.57 298.11 159.12 313.67 159.12 283.94 134.57 298.11"/><polygon class="cls-52" points="134.58 298.11 110.03 313.67 110.02 284.06 134.58 298.11"/><polygon class="cls-50" points="110.03 255.71 85.08 269.89 110.02 284.06 110.03 255.71"/><polygon class="cls-54" points="148.7 261.72 148.7 278.04 145.88 279.67 141.98 281.92 134.57 286.2 120.44 278.04 120.44 261.72 131.61 255.28 134.57 253.56 148.7 261.72"/><polygon class="cls-55" points="110.02 255.71 85.08 269.89 85.08 241.31 110.02 255.71"/><polygon class="cls-55" points="134.58 241.54 159.12 225.98 134.57 212.73 134.58 241.54"/><polygon class="cls-56" points="184.07 241.31 184.07 298.47 183.28 298.92 176.21 303 174.63 303.91 169.5 306.88 155.71 314.85 134.58 327.04 85.09 298.47 85.09 241.31 90.68 238.09 97.37 234.21 104.44 230.13 134.58 212.74 184.07 241.31"/><path class="cls-22" d="M133.42,241.53l1.15-28.8,1.16,28.8a1.16,1.16,0,1,1-2.31,0Z"/><path class="cls-22" d="M109.44,256.71l-24.36-15.4L110.6,254.7a1.16,1.16,0,1,1-1.16,2Z"/><path class="cls-22" d="M110,284.06l-1.82-28.35a1.63,1.63,0,0,1,.91-1.58c.13-.06,24.63-14,24.74-14a1.45,1.45,0,0,1,1.54,0l23.73,15.58-25.36-12.77h1.63l-24.45,14.35.91-1.58L110,284.06Z"/><path class="cls-22" d="M159.12,269.27l.77,14.67a.71.71,0,0,1-.35.65S135,298.77,135,298.78a.71.71,0,0,1-.77,0L122.09,291,135,297.44h-.77l24.55-14.17-.39.67.77-14.67Z"/><path class="cls-22" d="M135.35,298.11l-.77,14-.77-14a.77.77,0,1,1,1.54,0Z"/><path class="cls-22" d="M159.51,283.27l13.14,8.6-13.92-7.27a.77.77,0,1,1,.78-1.33Z"/><path class="cls-22" d="M184.65,242.31l-17.06,8.51,15.9-10.51a1.16,1.16,0,1,1,1.16,2Z"/><path class="cls-22" d="M84.5,297.46l14.66-7.13-13.51,9.14a1.16,1.16,0,1,1-1.15-2Z"/><polygon class="cls-57" points="184.07 298.46 184.07 241.31 134.57 212.73 85.08 241.31 85.08 298.46 134.57 327.04 184.07 298.46"/></g><g id="Sparkle-4" data-name="Sparkle"><circle class="cls-58" cx="157.43" cy="234.22" r="23.54"/><path class="cls-22" d="M172,234.22c-14.23,0-14.57,14.4-14.57,15.81,0-1.41-.34-15.81-14.56-15.81,14.22,0,14.56-14.4,14.56-15.81C157.42,219.82,157.76,234.22,172,234.22Z"/></g><g id="Gems-5" data-name="Gems"><polygon class="cls-59" points="254.52 99.11 254.52 171.49 253.52 172.06 244.57 177.23 242.56 178.38 236.07 182.14 218.6 192.23 191.85 207.67 129.18 171.49 129.18 99.11 136.25 95.03 144.73 90.12 153.68 84.95 191.85 62.92 254.52 99.11"/><polygon class="cls-60" points="191.85 171.2 191.85 207.68 175.34 198.15 129.16 171.49 138.08 166.34 160.76 153.25 191.85 171.2"/><polygon class="cls-61" points="160.76 117.35 129.17 99.11 191.85 62.93 191.85 99.4 160.76 117.35"/><polygon class="cls-60" points="222.94 117.35 254.52 99.11 254.52 171.49 222.94 153.25 222.94 117.35"/><polygon class="cls-59" points="222.93 117.35 222.93 153.25 216.73 156.82 208.15 161.79 191.85 171.19 160.76 153.25 160.76 117.35 185.32 103.16 191.85 99.4 222.93 117.35"/><polygon class="cls-62" points="191.85 99.4 222.93 79.7 222.94 117.35 191.85 99.4"/><polygon class="cls-63" points="191.86 99.4 160.77 79.7 160.77 117.35 191.86 99.4"/><polygon class="cls-64" points="222.93 117.35 254.52 135.3 222.94 153.25 222.93 117.35"/><polygon class="cls-65" points="191.85 171.04 222.93 190.74 222.94 153.09 191.85 171.04"/><polygon class="cls-64" points="191.86 171.04 160.77 190.74 160.76 153.25 191.86 171.04"/><polygon class="cls-62" points="160.77 117.35 129.18 135.3 160.76 153.25 160.77 117.35"/><polygon class="cls-66" points="209.74 124.96 209.74 145.63 206.17 147.69 201.23 150.54 191.85 155.96 173.95 145.63 173.95 124.96 188.09 116.8 191.85 114.63 209.74 124.96"/><polygon class="cls-67" points="160.76 117.35 129.18 135.3 129.17 99.11 160.76 117.35"/><polygon class="cls-67" points="191.86 99.4 222.93 79.7 191.85 62.93 191.86 99.4"/><polygon class="cls-68" points="254.53 99.12 254.53 171.5 253.52 172.07 244.57 177.24 242.57 178.39 236.08 182.15 218.61 192.24 191.86 207.68 129.18 171.5 129.18 99.12 136.26 95.03 144.74 90.13 153.69 84.96 191.86 62.93 254.53 99.12"/><path class="cls-22" d="M190.38,99.4l1.47-36.47,1.47,36.47a1.47,1.47,0,1,1-2.94,0Z"/><path class="cls-22" d="M160,118.62,129.17,99.11l32.32,17a1.47,1.47,0,1,1-1.46,2.54Z"/><path class="cls-22" d="M160.76,153.25l-2.31-35.9a2.09,2.09,0,0,1,1.15-2c.16-.07,31.19-17.72,31.33-17.79a1.87,1.87,0,0,1,1.95.06l30.05,19.74-32.11-16.17h2.06l-31,18.17,1.15-2-2.31,35.9Z"/><path class="cls-22" d="M222.94,134.52l1,18.57a.91.91,0,0,1-.44.83s-31.11,18-31.12,18a.89.89,0,0,1-1,0L176,162l16.3,8.2h-1l31.08-17.95-.49.84,1-18.57Z"/><path class="cls-22" d="M192.83,171l-1,17.7-1-17.7a1,1,0,1,1,2,0Z"/><path class="cls-22" d="M223.43,152.25l16.64,10.89-17.63-9.2a1,1,0,1,1,1-1.69Z"/><path class="cls-22" d="M255.26,100.38l-21.61,10.78,20.14-13.32a1.47,1.47,0,1,1,1.47,2.54Z"/><path class="cls-22" d="M128.43,170.22l18.58-9L129.9,172.76a1.47,1.47,0,1,1-1.47-2.54Z"/><polygon class="cls-69" points="254.52 171.49 254.52 99.11 191.85 62.93 129.17 99.11 129.17 171.49 191.85 207.68 254.52 171.49"/></g><g id="Sparkle-5" data-name="Sparkle"><circle class="cls-70" cx="220.79" cy="90.14" r="29.81"/><path class="cls-22" d="M239.23,90.14c-18,0-18.45,18.23-18.45,20,0-1.79-.43-20-18.43-20,18,0,18.43-18.24,18.43-20C220.78,71.9,221.21,90.14,239.23,90.14Z"/></g></g></g></g></svg>