<svg xmlns="http://www.w3.org/2000/svg" xmlns:xlink="http://www.w3.org/1999/xlink" viewBox="0 0 258.58 39.82"><defs><style>.cls-1,.cls-2{fill:none;stroke-linecap:round;stroke-linejoin:round;}.cls-1{stroke:#df88ff;stroke-width:8.63px;}.cls-2{stroke:#580499;stroke-width:5.65px;}.cls-3{fill:#cf5fff;}.cls-4,.cls-5,.cls-6,.cls-7,.cls-9{opacity:0.5;}.cls-4{fill:url(#linear-gradient);}.cls-5{fill:url(#linear-gradient-2);}.cls-6{fill:url(#linear-gradient-3);}.cls-7{fill:url(#linear-gradient-4);}.cls-8{fill:#fff;}.cls-10{fill:url(#linear-gradient-5);}.cls-11{fill:url(#linear-gradient-6);}.cls-12{fill:url(#linear-gradient-7);}.cls-13{fill:url(#linear-gradient-8);}.cls-14{fill:url(#linear-gradient-9);}.cls-15{fill:url(#linear-gradient-10);}.cls-16{fill:url(#radial-gradient);}</style><linearGradient id="linear-gradient" x1="158.1" y1="35.54" x2="158.1" y2="15.79" gradientUnits="userSpaceOnUse"><stop offset="0.19" stop-color="#b70090"/><stop offset="0.25" stop-color="#bb0c96" stop-opacity="0.94"/><stop offset="0.36" stop-color="#c72ca8" stop-opacity="0.77"/><stop offset="0.51" stop-color="#db5fc4" stop-opacity="0.51"/><stop offset="0.68" stop-color="#f5a5ea" stop-opacity="0.14"/><stop offset="0.74" stop-color="#ffc0f9" stop-opacity="0"/></linearGradient><linearGradient id="linear-gradient-2" x1="181.06" y1="35.54" x2="181.06" y2="15.79" xlink:href="#linear-gradient"/><linearGradient id="linear-gradient-3" x1="210.02" y1="35.54" x2="210.02" y2="15.79" xlink:href="#linear-gradient"/><linearGradient id="linear-gradient-4" x1="239.98" y1="35.54" x2="239.98" y2="15.79" xlink:href="#linear-gradient"/><linearGradient id="linear-gradient-5" x1="14.3" y1="39.82" x2="14.3" y2="16.16" gradientUnits="userSpaceOnUse"><stop offset="0.19" stop-color="#b0a9c4"/><stop offset="0.24" stop-color="#b5aac7" stop-opacity="0.94"/><stop offset="0.35" stop-color="#c1aecf" stop-opacity="0.79"/><stop offset="0.49" stop-color="#d5b4dc" stop-opacity="0.54"/><stop offset="0.66" stop-color="#f0bcef" stop-opacity="0.2"/><stop offset="0.74" stop-color="#ffc0f9" stop-opacity="0"/></linearGradient><linearGradient id="linear-gradient-6" x1="38.27" y1="39.82" x2="38.27" y2="16.16" xlink:href="#linear-gradient-5"/><linearGradient id="linear-gradient-7" x1="62.23" y1="39.82" x2="62.23" y2="16.16" xlink:href="#linear-gradient-5"/><linearGradient id="linear-gradient-8" x1="86.2" y1="39.82" x2="86.2" y2="16.16" xlink:href="#linear-gradient-5"/><linearGradient id="linear-gradient-9" x1="110.17" y1="39.82" x2="110.17" y2="16.16" xlink:href="#linear-gradient-5"/><linearGradient id="linear-gradient-10" x1="134.13" y1="39.82" x2="134.13" y2="16.16" xlink:href="#linear-gradient-5"/><radialGradient id="radial-gradient" cx="248.05" cy="10.53" r="10.53" gradientUnits="userSpaceOnUse"><stop offset="0" stop-color="#fff"/><stop offset="0.03" stop-color="#fff" stop-opacity="0.95"/><stop offset="0.18" stop-color="#fff" stop-opacity="0.71"/><stop offset="0.32" stop-color="#fff" stop-opacity="0.49"/><stop offset="0.47" stop-color="#fff" stop-opacity="0.31"/><stop offset="0.6" stop-color="#fff" stop-opacity="0.18"/><stop offset="0.73" stop-color="#fff" stop-opacity="0.08"/><stop offset="0.84" stop-color="#fff" stop-opacity="0.02"/><stop offset="0.94" stop-color="#fff" stop-opacity="0"/></radialGradient></defs><g id="Layer_2" data-name="Layer 2"><g id="Layer_1-2" data-name="Layer 1"><g id="Phone"><g id="Title"><path class="cls-1" d="M152.11,35.51l-2-2-2-2v-18l2-2,2-2h12l2,2,2,2v4h-8v-2h-4v14h4v-4h-2v-6h10v16Z"/><path class="cls-1" d="M176.07,35.51l-2-2-2-2v-18l2-2,2-2h14v6h-10v3h8v6h-8v5h10v6Z"/><path class="cls-1" d="M194.05,35.51v-22l2-2,2-2h10l2,2,2-2h10l2,2,2,2v22h-8v-20h-4v20h-8v-20h-4v20Z"/><path class="cls-1" d="M234,35.51l-2-2-2-2v-4h8v2h4v-4h-8l-2-2-2-2v-8l2-2,2-2h12l2,2,2,2v4h-8v-2h-4v4h8l2,2,2,2v8l-2,2-2,2Z"/><path class="cls-1" d="M8.31,35.51l-2-2-2-2v-4h8v2h4v-4h-8l-2-2-2-2v-8l2-2,2-2h12l2,2,2,2v4h-8v-2h-4v4h8l2,2,2,2v8l-2,2-2,2Z"/><path class="cls-1" d="M34.27,35.51v-20h-6v-6h20v6h-6v20Z"/><path class="cls-1" d="M52.25,35.51v-26h16l2,2,2,2v6l-2,2,2,2v12h-8v-8h-4v8Zm12-14v-6h-4v6Z"/><path class="cls-1" d="M76.21,35.51v-22l2-2,2-2h12l2,2,2,2v22h-8v-8h-4v8Zm12-14v-6h-4v6Z"/><path class="cls-1" d="M106.17,35.51v-20h-6v-6h20v6h-6v20Z"/><path class="cls-1" d="M124.15,35.51v-22l2-2,2-2h12l2,2,2,2v22h-8v-8h-4v8Zm12-14v-6h-4v6Z"/><path class="cls-2" d="M152.11,35.51l-2-2-2-2v-18l2-2,2-2h12l2,2,2,2v4h-8v-2h-4v14h4v-4h-2v-6h10v16Z"/><path class="cls-2" d="M176.07,35.51l-2-2-2-2v-18l2-2,2-2h14v6h-10v3h8v6h-8v5h10v6Z"/><path class="cls-2" d="M194.05,35.51v-22l2-2,2-2h10l2,2,2-2h10l2,2,2,2v22h-8v-20h-4v20h-8v-20h-4v20Z"/><path class="cls-2" d="M234,35.51l-2-2-2-2v-4h8v2h4v-4h-8l-2-2-2-2v-8l2-2,2-2h12l2,2,2,2v4h-8v-2h-4v4h8l2,2,2,2v8l-2,2-2,2Z"/><path class="cls-2" d="M8.31,35.51l-2-2-2-2v-4h8v2h4v-4h-8l-2-2-2-2v-8l2-2,2-2h12l2,2,2,2v4h-8v-2h-4v4h8l2,2,2,2v8l-2,2-2,2Z"/><path class="cls-2" d="M34.27,35.51v-20h-6v-6h20v6h-6v20Z"/><path class="cls-2" d="M52.25,35.51v-26h16l2,2,2,2v6l-2,2,2,2v12h-8v-8h-4v8Zm12-14v-6h-4v6Z"/><path class="cls-2" d="M76.21,35.51v-22l2-2,2-2h12l2,2,2,2v22h-8v-8h-4v8Zm12-14v-6h-4v6Z"/><path class="cls-2" d="M106.17,35.51v-20h-6v-6h20v6h-6v20Z"/><path class="cls-2" d="M124.15,35.51v-22l2-2,2-2h12l2,2,2,2v22h-8v-8h-4v8Zm12-14v-6h-4v6Z"/><path class="cls-3" d="M152.11,35.51l-2-2-2-2v-18l2-2,2-2h12l2,2,2,2v4h-8v-2h-4v14h4v-4h-2v-6h10v16Z"/><path class="cls-3" d="M176.07,35.51l-2-2-2-2v-18l2-2,2-2h14v6h-10v3h8v6h-8v5h10v6Z"/><path class="cls-3" d="M194.05,35.51v-22l2-2,2-2h10l2,2,2-2h10l2,2,2,2v22h-8v-20h-4v20h-8v-20h-4v20Z"/><path class="cls-3" d="M234,35.51l-2-2-2-2v-4h8v2h4v-4h-8l-2-2-2-2v-8l2-2,2-2h12l2,2,2,2v4h-8v-2h-4v4h8l2,2,2,2v8l-2,2-2,2Z"/><polygon class="cls-4" points="152.82 33.78 149.84 30.8 149.84 14.25 152.82 11.27 163.37 11.27 166.36 14.25 166.36 15.8 161.82 15.8 161.82 13.81 154.37 13.81 154.37 31.24 161.82 31.24 161.82 23.79 159.82 23.79 159.82 21.26 166.36 21.26 166.36 33.78 152.82 33.78"/><polygon class="cls-5" points="176.79 33.78 173.8 30.8 173.8 14.25 176.79 11.27 188.32 11.27 188.32 13.81 178.34 13.81 178.34 20.26 186.33 20.26 186.33 22.8 178.34 22.8 178.34 31.24 188.32 31.24 188.32 33.78 176.79 33.78"/><polygon class="cls-6" points="219.74 33.78 219.74 13.81 212.29 13.81 212.29 33.78 207.75 33.78 207.75 13.81 200.31 13.81 200.31 33.78 195.77 33.78 195.77 14.25 198.75 11.27 207.31 11.27 210.02 13.98 212.74 11.27 221.29 11.27 224.27 14.25 224.27 33.78 219.74 33.78"/><polygon class="cls-7" points="234.7 33.78 231.72 30.8 231.72 29.24 236.25 29.24 236.25 31.24 243.7 31.24 243.7 23.79 234.7 23.79 231.72 20.81 231.72 14.25 234.7 11.27 245.25 11.27 248.24 14.25 248.24 15.8 243.7 15.8 243.7 13.81 236.25 13.81 236.25 21.26 245.25 21.26 248.24 24.24 248.24 30.8 245.25 33.78 234.7 33.78"/><path class="cls-8" d="M8.31,35.51l-2-2-2-2v-4h8v2h4v-4h-8l-2-2-2-2v-8l2-2,2-2h12l2,2,2,2v4h-8v-2h-4v4h8l2,2,2,2v8l-2,2-2,2Z"/><path class="cls-8" d="M34.27,35.51v-20h-6v-6h20v6h-6v20Z"/><path class="cls-8" d="M52.25,35.51v-26h16l2,2,2,2v6l-2,2,2,2v12h-8v-8h-4v8Zm12-14v-6h-4v6Z"/><path class="cls-8" d="M76.21,35.51v-22l2-2,2-2h12l2,2,2,2v22h-8v-8h-4v8Zm12-14v-6h-4v6Z"/><path class="cls-8" d="M106.17,35.51v-20h-6v-6h20v6h-6v20Z"/><path class="cls-8" d="M124.15,35.51v-22l2-2,2-2h12l2,2,2,2v22h-8v-8h-4v8Zm12-14v-6h-4v6Z"/><g class="cls-9"><polygon class="cls-10" points="9.03 33.78 6.04 30.8 6.04 29.24 10.58 29.24 10.58 31.24 18.03 31.24 18.03 23.79 9.03 23.79 6.04 20.81 6.04 14.25 9.03 11.27 19.58 11.27 22.56 14.25 22.56 15.8 18.03 15.8 18.03 13.81 10.58 13.81 10.58 21.26 19.58 21.26 22.56 24.24 22.56 30.8 19.58 33.78 9.03 33.78"/><polygon class="cls-11" points="36 33.78 36 13.81 30.01 13.81 30.01 11.27 46.53 11.27 46.53 13.81 40.54 13.81 40.54 33.78 36 33.78"/><path class="cls-12" d="M66,33.78v-8H58.51v8H54V11.27H67.51l3,3v4.56l-2.71,2.72,2.71,2.71v9.54ZM58.51,23.25H66V13.81H58.51Z"/><path class="cls-13" d="M89.92,33.78v-8H82.48v8H77.94V14.25l3-3H91.48l3,3V33.78ZM82.48,23.25h7.44V13.81H82.48Z"/><polygon class="cls-14" points="107.9 33.78 107.9 13.81 101.91 13.81 101.91 11.27 118.42 11.27 118.42 13.81 112.43 13.81 112.43 33.78 107.9 33.78"/><path class="cls-15" d="M137.86,33.78v-8h-7.45v8h-4.54V14.25l3-3h10.55l3,3V33.78Zm-7.45-10.53h7.45V13.81h-7.45Z"/></g><g id="Sparkle"><circle class="cls-16" cx="248.05" cy="10.53" r="10.53"/><path class="cls-8" d="M254.57,10.53c-6.37,0-6.52,6.44-6.52,7.07,0-.63-.15-7.07-6.51-7.07,6.36,0,6.51-6.44,6.51-7.07C248.05,4.09,248.2,10.53,254.57,10.53Z"/></g></g></g></g></g></svg>